<?xml version="1.0" encoding="utf-8"?>
<!-- Generator: Adobe Illustrator 24.0.2, SVG Export Plug-In . SVG Version: 6.00 Build 0)  -->
<svg version="1.1" id="Capa_1" xmlns="http://www.w3.org/2000/svg" xmlns:xlink="http://www.w3.org/1999/xlink" x="0px" y="0px"
	 viewBox="0 0 512 512" style="enable-background:new 0 0 512 512;" xml:space="preserve">
<style type="text/css">
	.st0{fill-rule:evenodd;clip-rule:evenodd;fill:#FFFFFF;}
</style>
<path class="st0" d="M48.79,212.25c5.77-0.45,11.18,0.02,16.67-0.32c-0.08-1.68-0.2-3.08-0.2-4.47c-0.02-6.36,3.75-12,9.72-14.08
	c10.64-3.7,19.87,4.04,20.22,13.49c0.06,1.6-0.18,3.21-0.28,4.91c2.79,0.51,5.5,0.18,8.2,0.25c2.69,0.07,5.4-0.08,8.2,0.12
	c0.67,3.84-0.04,7.55,0.46,11.17c1.11,0.84,2.35,0.5,3.51,0.5c11.96,0.03,23.92,0.02,35.88,0.02c1.18,0,2.36,0.05,3.63,0.07
	c0.14,0.71,0.33,1.22,0.34,1.74c0.02,8.48,0.02,16.96,0.01,25.44c0,0.43-0.11,0.85-0.19,1.43c-1.01,0.34-2.04,0.66-3.05,1.02
	c-21.56,7.7-34.7,22.77-39.37,45.16c-0.82,3.94-0.95,7.97-0.94,12.01c0.03,21.86,0.01,43.71,0.01,65.57c0,3.37,0,6.74,0,10.11
	c0,0.96,0,1.93,0,2.77c-1.16,0.92-2.28,0.59-3.32,0.59c-10.55,0.03-21.1,0.02-31.64,0.02c-8.05,0-16.09,0-24.14,0
	c-1.07,0-2.14,0-3.41,0c-0.12-0.79-0.26-1.4-0.29-2.01c-0.05-0.87-0.02-1.74-0.02-2.61c0-56.11,0-112.22,0-168.33
	C48.79,215.43,48.79,214.03,48.79,212.25z"/>
<path class="st0" d="M186.06,252.59c-0.01-9.59-0.01-18.92,0.01-28.27c1.32-0.69,2.53-0.47,3.69-0.47c11.64-0.02,23.27,0,34.91-0.02
	c1.17,0,2.38,0.22,3.66-0.37c0.49-3.63-0.09-7.32,0.35-11.14c0.85-0.1,1.58-0.26,2.3-0.26c3.81-0.03,7.61,0,11.42-0.02
	c0.94,0,1.89-0.11,2.99-0.19c-0.1-0.99-0.16-1.73-0.25-2.46c-0.91-7.36,3.43-14.33,10.61-16.31c11.42-3.15,19.18,5.88,19.19,13.51
	c0,1.62,0,3.24,0,5.09c0.48,0.11,1.07,0.34,1.67,0.35c3.7,0.04,7.4,0.01,11.09,0.03c1.07,0,2.14,0.08,3.38,0.13
	c0.12,0.74,0.27,1.35,0.3,1.96c0.05,0.98,0.02,1.96,0.02,2.94c0,56.01,0,112.01,0,168.02c0,1.41,0,2.81,0,4.34
	c-0.8,0.13-1.42,0.33-2.04,0.33c-19.58,0.02-39.15,0.01-58.73,0.01c-0.54,0-1.07-0.07-1.77-0.13c-0.11-0.63-0.28-1.24-0.32-1.86
	c-0.05-0.98-0.02-1.96-0.02-2.94c0-26.21-0.08-52.42,0.06-78.63c0.03-6.44-1.23-12.53-3.54-18.44
	c-4.05-10.37-10.54-18.99-19.51-25.61c-4.83-3.56-10.11-6.37-15.83-8.28C188.57,253.53,187.46,253.1,186.06,252.59z"/>
<path class="st0" d="M123.06,122.36c2.88-0.38,91.45-0.42,94.74-0.07c0.1,0.44,0.31,0.94,0.31,1.45
	c0.02,13.48,0.02,26.97,0.01,40.45c0,0.42-0.1,0.84-0.16,1.3c-1.14,0.7-2.37,0.39-3.52,0.39c-10.77,0.03-21.53,0.02-32.3,0.02
	c-1.18,0-2.37,0-3.72,0c-0.13,0.78-0.3,1.38-0.33,1.99c-0.05,1.19-0.02,2.39-0.02,3.59c0,101.35,0,202.7-0.01,304.04
	c0,1.38,0.26,2.81-0.29,4.12c-2.72,0.55-11.64,0.54-14.25,0c-0.07-0.08-0.16-0.16-0.2-0.25c-0.05-0.09-0.05-0.2-0.07-0.31
	c-0.02-0.11-0.04-0.21-0.05-0.32c-0.01-0.11-0.01-0.22-0.02-0.33c0-0.11-0.01-0.22-0.01-0.33c0-0.11,0-0.22,0-0.33s0-0.22,0-0.33
	c0-0.11,0-0.22,0-0.33c0-0.11,0-0.22,0-0.33s0-0.22,0-0.33c0-0.11,0-0.22,0-0.33c0-0.22,0-0.43,0-0.65c0-101.89,0-203.78,0-305.68
	c0-0.11,0-0.22,0-0.33c0-0.11,0-0.22,0-0.33c0-0.11,0-0.22,0-0.33c0-0.11,0-0.22,0-0.33c0-0.11,0-0.22,0-0.33c0-0.11,0-0.22,0-0.33
	c0-0.11,0-0.22-0.01-0.33c0-0.11,0-0.22-0.01-0.33c-0.01-0.11-0.03-0.22-0.04-0.32c-0.02-0.11-0.02-0.22-0.06-0.32
	c-0.04-0.09-0.12-0.17-0.36-0.49c-0.93-0.35-2.13-0.17-3.29-0.18c-10.77-0.02-21.53-0.01-32.3-0.01c-1.19,0-2.38,0-3.45,0
	c-0.98-1.08-0.66-2.22-0.67-3.26c-0.02-9.35-0.01-18.7-0.01-28.06c0-3.15-0.01-6.31,0.01-9.46
	C122.94,124.27,123.01,123.42,123.06,122.36z"/>
<path class="st0" d="M302.8,389.68c0-32.72,0-65.08,0-97.34c0.75-0.91,1.69-0.65,2.51-0.66c5.22-0.03,10.43-0.02,15.65-0.02
	c9.24,0,18.47,0.01,27.71,0c2.75,0,5.41,0.36,7.94,1.49c2.12,0.94,3.98,2.22,5.56,3.91c2.09,2.23,3.25,4.87,3.26,7.94
	c0.02,6.96,0.07,13.91-0.01,20.86c-0.05,4.41-1.7,8.25-4.67,11.52c-0.72,0.79-1.48,1.56-2.27,2.39c0.99,0.75,1.86,1.38,2.71,2.06
	c4.52,3.61,6.89,8.3,6.93,14.11c0.02,3.26,0.01,6.52,0,9.78c-0.02,6.37-2.6,11.57-7.33,15.74c-4.69,4.13-10.24,6.51-16.34,7.58
	c-2.56,0.45-5.18,0.69-7.77,0.71c-10.32,0.08-20.65,0.04-30.97,0.03C304.85,389.78,304,389.72,302.8,389.68z M325.34,371.69
	c4.59-0.03,9.03,0.2,13.46-0.21c0.96-0.09,1.93-0.33,2.84-0.64c2.91-1.01,4.16-2.72,4.24-5.83c0.07-2.71-0.02-5.42,0.03-8.13
	c0.06-2.98-1.49-4.88-4.02-6.13c-1.28-0.63-2.66-0.86-4.1-0.85c-3.68,0.03-7.37,0-11.05,0.01c-0.51,0-1.02,0.14-1.48,0.21
	C324.79,353.24,324.82,368.63,325.34,371.69z M324.94,331.39c4.13,0.23,7.8,0.27,11.47-0.01c0.43-0.03,0.85-0.17,1.27-0.27
	c3.87-0.92,5.66-3.74,5.55-6.99c-0.14-4.02-0.02-8.04-0.05-12.06c0-0.62-0.19-1.24-0.3-1.89c-0.55-0.1-0.96-0.25-1.39-0.25
	c-5.11-0.01-10.22,0-15.32,0.03c-0.3,0-0.59,0.18-1.05,0.33c-0.06,0.51-0.17,1.02-0.18,1.54
	C324.93,318.22,324.94,324.62,324.94,331.39z"/>
<path class="st0" d="M405.5,355.01c-0.15,11.75,0,23.03-0.09,34.4c-2.48,0.73-4.86,0.28-7.21,0.35c-2.5,0.08-5,0.03-7.5,0.02
	c-2.37-0.01-4.74-0.04-6.88-0.06c-0.29-0.33-0.37-0.4-0.43-0.49c-0.05-0.09-0.1-0.2-0.1-0.3c-0.03-31.2-0.06-62.39-0.09-93.58
	c0-0.87,0.03-1.74,0.07-2.6c0.01-0.2,0.15-0.39,0.31-0.77c0.99-0.5,2.2-0.29,3.36-0.29c12.72-0.02,25.44-0.01,38.15-0.01
	c2.72,0,5.43-0.01,8.15,0.02c3.35,0.03,6.42,0.99,9.21,2.84c4.1,2.71,6.35,6.4,6.31,11.43c-0.06,7.94-0.03,15.87-0.01,23.81
	c0.02,8.45-3.76,14.77-10.75,19.3c-4.93,3.19-10.37,5.01-16.2,5.46c-4.11,0.32-8.25,0.28-12.38,0.39
	C408.26,354.95,407.08,354.98,405.5,355.01z M405.58,336.17c0.61,0.17,0.92,0.34,1.23,0.34c4.01-0.03,8.02-0.05,12.03-0.15
	c0.96-0.03,1.94-0.24,2.86-0.52c3.9-1.16,4.74-3.4,4.72-6.12c-0.04-5.97,0-11.93-0.04-17.9c0-0.6-0.27-1.2-0.44-1.93
	c-2.41,0-4.69,0-6.96,0c-2.17,0-4.34-0.04-6.51,0.01c-2.24,0.05-4.51-0.26-6.58,0.22c-0.21,0.45-0.37,0.64-0.37,0.83
	c-0.04,7.81-0.06,15.62-0.08,23.43C405.45,334.91,405.53,335.43,405.58,336.17z"/>
<path class="st0" d="M353.72,276.96c-0.09-0.74-0.21-1.26-0.22-1.78c-0.01-20.84-0.01-41.69-0.01-62.65
	c0.81-0.14,1.43-0.34,2.04-0.34c9.23-0.02,18.47,0,27.7-0.02c2.81-0.01,5.36,0.73,7.58,2.49c2.08,1.64,3.3,3.75,3.32,6.43
	c0.03,4.67,0.05,9.34-0.03,14.01c-0.05,2.69-1.04,5.08-2.78,7.15c-0.48,0.57-0.99,1.11-1.58,1.75c0.65,0.56,1.21,1.06,1.79,1.54
	c2.63,2.21,4.13,5.04,4.28,8.47c0.12,2.6,0.14,5.22,0.01,7.82c-0.22,4.64-2.4,8.26-6.14,10.97c-3.14,2.28-6.67,3.6-10.51,4.07
	c-1.29,0.16-2.6,0.24-3.9,0.25c-6.41,0.02-12.82,0.02-19.23,0.01C355.41,277.1,354.76,277.03,353.72,276.96z M368.03,265.03
	c3.16,0.07,5.97,0.19,8.77-0.1c0.75-0.08,1.49-0.32,2.2-0.6c1.43-0.57,2.33-1.62,2.37-3.2c0.05-2.06,0.04-4.13,0.02-6.2
	c-0.02-1.56-0.85-2.65-2.16-3.41c-0.96-0.56-2.01-0.78-3.12-0.77c-2.07,0.03-4.13-0.02-6.2,0.02c-0.61,0.01-1.22,0.21-1.87,0.34
	C368.03,255.71,368.03,260.16,368.03,265.03z M379.47,224.71c-2.77-0.66-8.98-0.62-11.26,0.03c-0.48,3.21-0.4,11.14,0.18,13.68
	c2.29,0.22,4.66,0.26,7.01,0.01c2.76-0.29,4.24-1.97,4.31-4.76c0.06-2.6,0.02-5.2-0.01-7.8
	C379.69,225.47,379.54,225.06,379.47,224.71z"/>
<path class="st0" d="M170.64,54.92c11.19-1.03,25.9,9.46,25.97,25.72c0.05,12.85-10.92,25.87-25.99,25.93
	c-14.24,0.05-26.24-11.92-26.12-26.11C144.63,66.2,156.1,54.92,170.64,54.92z"/>
<path class="st0" d="M415.79,212.46c2.53-0.37,15.1-0.42,18.74-0.06c0.21,0.61,0.53,1.29,0.69,2c4.31,19.96,8.61,39.93,12.9,59.9
	c0.16,0.73,0.21,1.49,0.33,2.36c-2.38,0.9-4.77,0.33-7.1,0.43c-2.27,0.1-4.55,0.02-6.95,0.02c-1.72-4.27-1.79-8.81-3.29-12.91
	c-2.59-0.4-8.64-0.44-11.97-0.07c-1.34,4.02-1.76,8.37-3.04,12.6c-2.35,0.76-4.75,0.29-7.1,0.36c-2.36,0.07-4.73,0.12-7.2-0.1
	c0.08-0.86,0.08-1.4,0.19-1.91c4.44-20.6,8.89-41.2,13.35-61.8C415.41,212.98,415.65,212.71,415.79,212.46z M425.17,227.13
	c-1.54,8.12-2.42,16.26-3.45,24.49c2.3,0.52,4.38,0.54,6.71-0.02C427.68,243.34,426.42,235.24,425.17,227.13z"/>
<path class="st0" d="M344.86,233.59c-2.36,0.61-10.04,0.71-13.8,0.21c-0.77-1.36-0.32-2.91-0.4-4.39c-0.08-1.51-0.02-3.03-0.02-4.35
	c-0.37-0.33-0.52-0.58-0.69-0.6c-4.11-0.44-8.21-0.08-12.51-0.21c-0.14,0.86-0.31,1.47-0.31,2.07c-0.02,12.28-0.01,24.56,0,36.84
	c0,0.52,0.11,1.04,0.16,1.51c2.46,0.52,8.28,0.62,12.96,0.23c0.12-0.64,0.35-1.34,0.37-2.05c0.07-2.38,0.06-4.76,0.09-7.08
	c2.39-0.66,11.04-0.73,13.98-0.16c0.44,2.11,0.59,12.45,0.16,14.23c-0.95,3.94-3.79,5.91-7.44,6.97c-0.62,0.18-1.29,0.25-1.94,0.25
	c-7.71,0.02-15.43,0.04-23.15,0.01c-1.64,0-3.22-0.42-4.68-1.25c-3.16-1.79-5.03-4.28-4.98-8.12c0.09-8.26,0.03-16.52,0.03-24.78
	c0-6.95-0.02-13.91,0.01-20.86c0.02-5.27,3.29-8.99,8.54-9.75c0.86-0.12,1.73-0.13,2.6-0.14c6.63-0.01,13.26-0.04,19.89,0.02
	c1.5,0.01,3.06,0.18,4.48,0.61c4.45,1.35,6.78,4.54,6.84,9.16c0.04,3.15,0.02,6.3,0,9.45C345.06,232.16,344.93,232.9,344.86,233.59z
	"/>
</svg>
